<svg version="1.1" xmlns="http://www.w3.org/2000/svg" xmlns:xlink="http://www.w3.org/1999/xlink" x="0px" y="0px" width="100px"
	 height="100px" viewBox="0 0 50 50" enable-background="new 0 0 50 50" xml:space="preserve" preserveAspectRatio="xMidYMid">
	<path fill="#77686D" d="M1.241,43.616h18.622V15.681H1.241V43.616z M10.945,42.216c-0.496,0-0.897-0.405-0.897-0.899
		c0-0.495,0.401-0.897,0.897-0.897s0.898,0.402,0.898,0.897C11.844,41.811,11.441,42.216,10.945,42.216z M3.934,18.373h13.238
		l-0.001,20.611H3.934V18.373z"/>
	<polygon fill="#77686D" points="10.451,9.012 40.293,9.012 40.293,21.122 42.923,21.122 42.923,6.384 7.822,6.384 7.822,14.487 10.451,14.487 		
		"/>
	<rect fill="#77686D" x="21.063" y="26.899" width="13.829" height="2.628"/>
	<path fill="#77686D" d="M36.252,22.142V43.18h12.507V22.142H36.252z M42.783,23.013c0.167,0,0.302,0.135,0.302,0.302
		c0,0.166-0.135,0.303-0.302,0.303s-0.302-0.137-0.302-0.303C42.481,23.147,42.616,23.013,42.783,23.013z M40.984,24.022h3.598
		v0.289h-3.598V24.022z M42.665,42.271c-0.398,0-0.721-0.323-0.721-0.722c0-0.397,0.322-0.721,0.721-0.721
		c0.397,0,0.721,0.323,0.721,0.721C43.386,41.948,43.063,42.271,42.665,42.271z M46.752,39.794
		c-3.248,0.018-6.883,0.03-8.493,0.017V25.346l8.493-0.002V39.794z"/>
	<polygon fill="#77686D" points="24.869,30.603 21.063,30.603 21.063,32.197 30.333,32.197 30.333,32.894 21.063,32.894 21.063,34.335 
		34.893,34.335 34.893,30.603 25.87,30.603 		"/>
</svg>
